<mxfile host="app.diagrams.net" modified="2022-11-21T07:08:25.484Z" agent="5.0 (Windows NT 10.0; Win64; x64) AppleWebKit/537.36 (KHTML, like Gecko) Chrome/107.0.0.0 Safari/537.36" etag="bqjfPB-NvlQuEDf7Uy9e" version="20.5.3" type="github">
  <diagram id="sMmAQYCs5EyKu3Fh2t2H" name="Page-1">
    <mxGraphModel dx="3076" dy="905" grid="0" gridSize="10" guides="1" tooltips="1" connect="1" arrows="1" fold="1" page="1" pageScale="1" pageWidth="827" pageHeight="1169" math="0" shadow="0">
      <root>
        <mxCell id="0" />
        <mxCell id="1" parent="0" />
        <mxCell id="rYv1pdvPTBTZVdlMx-2p-1" value="Shop" style="shape=table;startSize=30;container=1;collapsible=1;childLayout=tableLayout;fixedRows=1;rowLines=0;fontStyle=1;align=center;resizeLast=1;" parent="1" vertex="1">
          <mxGeometry x="-775" y="249" width="180.75" height="180" as="geometry" />
        </mxCell>
        <mxCell id="rYv1pdvPTBTZVdlMx-2p-2" value="" style="shape=tableRow;horizontal=0;startSize=0;swimlaneHead=0;swimlaneBody=0;fillColor=none;collapsible=0;dropTarget=0;points=[[0,0.5],[1,0.5]];portConstraint=eastwest;top=0;left=0;right=0;bottom=1;" parent="rYv1pdvPTBTZVdlMx-2p-1" vertex="1">
          <mxGeometry y="30" width="180.75" height="30" as="geometry" />
        </mxCell>
        <mxCell id="rYv1pdvPTBTZVdlMx-2p-3" value="PK" style="shape=partialRectangle;connectable=0;fillColor=none;top=0;left=0;bottom=0;right=0;fontStyle=1;overflow=hidden;" parent="rYv1pdvPTBTZVdlMx-2p-2" vertex="1">
          <mxGeometry width="29.793103448275815" height="30" as="geometry">
            <mxRectangle width="29.793103448275815" height="30" as="alternateBounds" />
          </mxGeometry>
        </mxCell>
        <mxCell id="rYv1pdvPTBTZVdlMx-2p-4" value="ID" style="shape=partialRectangle;connectable=0;fillColor=none;top=0;left=0;bottom=0;right=0;align=left;spacingLeft=6;fontStyle=5;overflow=hidden;" parent="rYv1pdvPTBTZVdlMx-2p-2" vertex="1">
          <mxGeometry x="29.793103448275815" width="150.95689655172418" height="30" as="geometry">
            <mxRectangle width="150.95689655172418" height="30" as="alternateBounds" />
          </mxGeometry>
        </mxCell>
        <mxCell id="rYv1pdvPTBTZVdlMx-2p-8" value="" style="shape=tableRow;horizontal=0;startSize=0;swimlaneHead=0;swimlaneBody=0;fillColor=none;collapsible=0;dropTarget=0;points=[[0,0.5],[1,0.5]];portConstraint=eastwest;top=0;left=0;right=0;bottom=0;" parent="rYv1pdvPTBTZVdlMx-2p-1" vertex="1">
          <mxGeometry y="60" width="180.75" height="30" as="geometry" />
        </mxCell>
        <mxCell id="rYv1pdvPTBTZVdlMx-2p-9" value="FK" style="shape=partialRectangle;connectable=0;fillColor=none;top=0;left=0;bottom=0;right=0;editable=1;overflow=hidden;fontStyle=1" parent="rYv1pdvPTBTZVdlMx-2p-8" vertex="1">
          <mxGeometry width="29.793103448275815" height="30" as="geometry">
            <mxRectangle width="29.793103448275815" height="30" as="alternateBounds" />
          </mxGeometry>
        </mxCell>
        <mxCell id="rYv1pdvPTBTZVdlMx-2p-10" value="WorkTimeId : int(11)" style="shape=partialRectangle;connectable=0;fillColor=none;top=0;left=0;bottom=0;right=0;align=left;spacingLeft=6;overflow=hidden;" parent="rYv1pdvPTBTZVdlMx-2p-8" vertex="1">
          <mxGeometry x="29.793103448275815" width="150.95689655172418" height="30" as="geometry">
            <mxRectangle width="150.95689655172418" height="30" as="alternateBounds" />
          </mxGeometry>
        </mxCell>
        <mxCell id="rYv1pdvPTBTZVdlMx-2p-106" value="" style="shape=tableRow;horizontal=0;startSize=0;swimlaneHead=0;swimlaneBody=0;fillColor=none;collapsible=0;dropTarget=0;points=[[0,0.5],[1,0.5]];portConstraint=eastwest;top=0;left=0;right=0;bottom=0;" parent="rYv1pdvPTBTZVdlMx-2p-1" vertex="1">
          <mxGeometry y="90" width="180.75" height="30" as="geometry" />
        </mxCell>
        <mxCell id="rYv1pdvPTBTZVdlMx-2p-107" value="" style="shape=partialRectangle;connectable=0;fillColor=none;top=0;left=0;bottom=0;right=0;editable=1;overflow=hidden;" parent="rYv1pdvPTBTZVdlMx-2p-106" vertex="1">
          <mxGeometry width="29.793103448275815" height="30" as="geometry">
            <mxRectangle width="29.793103448275815" height="30" as="alternateBounds" />
          </mxGeometry>
        </mxCell>
        <mxCell id="rYv1pdvPTBTZVdlMx-2p-108" value="Type : int(11)" style="shape=partialRectangle;connectable=0;fillColor=none;top=0;left=0;bottom=0;right=0;align=left;spacingLeft=6;overflow=hidden;" parent="rYv1pdvPTBTZVdlMx-2p-106" vertex="1">
          <mxGeometry x="29.793103448275815" width="150.95689655172418" height="30" as="geometry">
            <mxRectangle width="150.95689655172418" height="30" as="alternateBounds" />
          </mxGeometry>
        </mxCell>
        <mxCell id="rYv1pdvPTBTZVdlMx-2p-126" value="" style="shape=tableRow;horizontal=0;startSize=0;swimlaneHead=0;swimlaneBody=0;fillColor=none;collapsible=0;dropTarget=0;points=[[0,0.5],[1,0.5]];portConstraint=eastwest;top=0;left=0;right=0;bottom=0;" parent="rYv1pdvPTBTZVdlMx-2p-1" vertex="1">
          <mxGeometry y="120" width="180.75" height="30" as="geometry" />
        </mxCell>
        <mxCell id="rYv1pdvPTBTZVdlMx-2p-127" value="" style="shape=partialRectangle;connectable=0;fillColor=none;top=0;left=0;bottom=0;right=0;editable=1;overflow=hidden;" parent="rYv1pdvPTBTZVdlMx-2p-126" vertex="1">
          <mxGeometry width="29.793103448275815" height="30" as="geometry">
            <mxRectangle width="29.793103448275815" height="30" as="alternateBounds" />
          </mxGeometry>
        </mxCell>
        <mxCell id="rYv1pdvPTBTZVdlMx-2p-128" value="Square : int(11)" style="shape=partialRectangle;connectable=0;fillColor=none;top=0;left=0;bottom=0;right=0;align=left;spacingLeft=6;overflow=hidden;" parent="rYv1pdvPTBTZVdlMx-2p-126" vertex="1">
          <mxGeometry x="29.793103448275815" width="150.95689655172418" height="30" as="geometry">
            <mxRectangle width="150.95689655172418" height="30" as="alternateBounds" />
          </mxGeometry>
        </mxCell>
        <mxCell id="rYv1pdvPTBTZVdlMx-2p-129" value="" style="shape=tableRow;horizontal=0;startSize=0;swimlaneHead=0;swimlaneBody=0;fillColor=none;collapsible=0;dropTarget=0;points=[[0,0.5],[1,0.5]];portConstraint=eastwest;top=0;left=0;right=0;bottom=0;" parent="rYv1pdvPTBTZVdlMx-2p-1" vertex="1">
          <mxGeometry y="150" width="180.75" height="30" as="geometry" />
        </mxCell>
        <mxCell id="rYv1pdvPTBTZVdlMx-2p-130" value="" style="shape=partialRectangle;connectable=0;fillColor=none;top=0;left=0;bottom=0;right=0;editable=1;overflow=hidden;" parent="rYv1pdvPTBTZVdlMx-2p-129" vertex="1">
          <mxGeometry width="29.793103448275815" height="30" as="geometry">
            <mxRectangle width="29.793103448275815" height="30" as="alternateBounds" />
          </mxGeometry>
        </mxCell>
        <mxCell id="rYv1pdvPTBTZVdlMx-2p-131" value="Adress : varchar(255)" style="shape=partialRectangle;connectable=0;fillColor=none;top=0;left=0;bottom=0;right=0;align=left;spacingLeft=6;overflow=hidden;" parent="rYv1pdvPTBTZVdlMx-2p-129" vertex="1">
          <mxGeometry x="29.793103448275815" width="150.95689655172418" height="30" as="geometry">
            <mxRectangle width="150.95689655172418" height="30" as="alternateBounds" />
          </mxGeometry>
        </mxCell>
        <mxCell id="rYv1pdvPTBTZVdlMx-2p-14" value="Worker" style="shape=table;startSize=30;container=1;collapsible=1;childLayout=tableLayout;fixedRows=1;rowLines=0;fontStyle=1;align=center;resizeLast=1;" parent="1" vertex="1">
          <mxGeometry x="-507" y="38" width="225.17" height="302" as="geometry">
            <mxRectangle x="-503" y="42" width="68" height="30" as="alternateBounds" />
          </mxGeometry>
        </mxCell>
        <mxCell id="rYv1pdvPTBTZVdlMx-2p-15" value="" style="shape=tableRow;horizontal=0;startSize=0;swimlaneHead=0;swimlaneBody=0;fillColor=none;collapsible=0;dropTarget=0;points=[[0,0.5],[1,0.5]];portConstraint=eastwest;top=0;left=0;right=0;bottom=1;" parent="rYv1pdvPTBTZVdlMx-2p-14" vertex="1">
          <mxGeometry y="30" width="225.17" height="30" as="geometry" />
        </mxCell>
        <mxCell id="rYv1pdvPTBTZVdlMx-2p-16" value="PK" style="shape=partialRectangle;connectable=0;fillColor=none;top=0;left=0;bottom=0;right=0;fontStyle=1;overflow=hidden;" parent="rYv1pdvPTBTZVdlMx-2p-15" vertex="1">
          <mxGeometry width="30.000000000000057" height="30" as="geometry">
            <mxRectangle width="30.000000000000057" height="30" as="alternateBounds" />
          </mxGeometry>
        </mxCell>
        <mxCell id="rYv1pdvPTBTZVdlMx-2p-17" value="ID" style="shape=partialRectangle;connectable=0;fillColor=none;top=0;left=0;bottom=0;right=0;align=left;spacingLeft=6;fontStyle=5;overflow=hidden;" parent="rYv1pdvPTBTZVdlMx-2p-15" vertex="1">
          <mxGeometry x="30.000000000000057" width="195.16999999999993" height="30" as="geometry">
            <mxRectangle width="195.16999999999993" height="30" as="alternateBounds" />
          </mxGeometry>
        </mxCell>
        <mxCell id="rYv1pdvPTBTZVdlMx-2p-18" value="" style="shape=tableRow;horizontal=0;startSize=0;swimlaneHead=0;swimlaneBody=0;fillColor=none;collapsible=0;dropTarget=0;points=[[0,0.5],[1,0.5]];portConstraint=eastwest;top=0;left=0;right=0;bottom=0;" parent="rYv1pdvPTBTZVdlMx-2p-14" vertex="1">
          <mxGeometry y="60" width="225.17" height="31" as="geometry" />
        </mxCell>
        <mxCell id="rYv1pdvPTBTZVdlMx-2p-19" value="FK" style="shape=partialRectangle;connectable=0;fillColor=none;top=0;left=0;bottom=0;right=0;editable=1;overflow=hidden;fontStyle=1" parent="rYv1pdvPTBTZVdlMx-2p-18" vertex="1">
          <mxGeometry width="30.000000000000057" height="31" as="geometry">
            <mxRectangle width="30.000000000000057" height="31" as="alternateBounds" />
          </mxGeometry>
        </mxCell>
        <mxCell id="rYv1pdvPTBTZVdlMx-2p-20" value="WorkPlaceId : int(11)" style="shape=partialRectangle;connectable=0;fillColor=none;top=0;left=0;bottom=0;right=0;align=left;spacingLeft=6;overflow=hidden;" parent="rYv1pdvPTBTZVdlMx-2p-18" vertex="1">
          <mxGeometry x="30.000000000000057" width="195.16999999999993" height="31" as="geometry">
            <mxRectangle width="195.16999999999993" height="31" as="alternateBounds" />
          </mxGeometry>
        </mxCell>
        <mxCell id="rYv1pdvPTBTZVdlMx-2p-21" value="" style="shape=tableRow;horizontal=0;startSize=0;swimlaneHead=0;swimlaneBody=0;fillColor=none;collapsible=0;dropTarget=0;points=[[0,0.5],[1,0.5]];portConstraint=eastwest;top=0;left=0;right=0;bottom=0;" parent="rYv1pdvPTBTZVdlMx-2p-14" vertex="1">
          <mxGeometry y="91" width="225.17" height="30" as="geometry" />
        </mxCell>
        <mxCell id="rYv1pdvPTBTZVdlMx-2p-22" value="" style="shape=partialRectangle;connectable=0;fillColor=none;top=0;left=0;bottom=0;right=0;editable=1;overflow=hidden;" parent="rYv1pdvPTBTZVdlMx-2p-21" vertex="1">
          <mxGeometry width="30.000000000000057" height="30" as="geometry">
            <mxRectangle width="30.000000000000057" height="30" as="alternateBounds" />
          </mxGeometry>
        </mxCell>
        <mxCell id="rYv1pdvPTBTZVdlMx-2p-23" value="Name : varchar(63)" style="shape=partialRectangle;connectable=0;fillColor=none;top=0;left=0;bottom=0;right=0;align=left;spacingLeft=6;overflow=hidden;" parent="rYv1pdvPTBTZVdlMx-2p-21" vertex="1">
          <mxGeometry x="30.000000000000057" width="195.16999999999993" height="30" as="geometry">
            <mxRectangle width="195.16999999999993" height="30" as="alternateBounds" />
          </mxGeometry>
        </mxCell>
        <mxCell id="rYv1pdvPTBTZVdlMx-2p-24" value="" style="shape=tableRow;horizontal=0;startSize=0;swimlaneHead=0;swimlaneBody=0;fillColor=none;collapsible=0;dropTarget=0;points=[[0,0.5],[1,0.5]];portConstraint=eastwest;top=0;left=0;right=0;bottom=0;" parent="rYv1pdvPTBTZVdlMx-2p-14" vertex="1">
          <mxGeometry y="121" width="225.17" height="30" as="geometry" />
        </mxCell>
        <mxCell id="rYv1pdvPTBTZVdlMx-2p-25" value="" style="shape=partialRectangle;connectable=0;fillColor=none;top=0;left=0;bottom=0;right=0;editable=1;overflow=hidden;" parent="rYv1pdvPTBTZVdlMx-2p-24" vertex="1">
          <mxGeometry width="30.000000000000057" height="30" as="geometry">
            <mxRectangle width="30.000000000000057" height="30" as="alternateBounds" />
          </mxGeometry>
        </mxCell>
        <mxCell id="rYv1pdvPTBTZVdlMx-2p-26" value="Surname : varchar(63)" style="shape=partialRectangle;connectable=0;fillColor=none;top=0;left=0;bottom=0;right=0;align=left;spacingLeft=6;overflow=hidden;" parent="rYv1pdvPTBTZVdlMx-2p-24" vertex="1">
          <mxGeometry x="30.000000000000057" width="195.16999999999993" height="30" as="geometry">
            <mxRectangle width="195.16999999999993" height="30" as="alternateBounds" />
          </mxGeometry>
        </mxCell>
        <mxCell id="rYv1pdvPTBTZVdlMx-2p-30" value="" style="shape=tableRow;horizontal=0;startSize=0;swimlaneHead=0;swimlaneBody=0;fillColor=none;collapsible=0;dropTarget=0;points=[[0,0.5],[1,0.5]];portConstraint=eastwest;top=0;left=0;right=0;bottom=0;" parent="rYv1pdvPTBTZVdlMx-2p-14" vertex="1">
          <mxGeometry y="151" width="225.17" height="30" as="geometry" />
        </mxCell>
        <mxCell id="rYv1pdvPTBTZVdlMx-2p-31" value="" style="shape=partialRectangle;connectable=0;fillColor=none;top=0;left=0;bottom=0;right=0;editable=1;overflow=hidden;" parent="rYv1pdvPTBTZVdlMx-2p-30" vertex="1">
          <mxGeometry width="30.000000000000057" height="30" as="geometry">
            <mxRectangle width="30.000000000000057" height="30" as="alternateBounds" />
          </mxGeometry>
        </mxCell>
        <mxCell id="rYv1pdvPTBTZVdlMx-2p-32" value="WorkTimePerWeek(hours) : int(11)" style="shape=partialRectangle;connectable=0;fillColor=none;top=0;left=0;bottom=0;right=0;align=left;spacingLeft=6;overflow=hidden;" parent="rYv1pdvPTBTZVdlMx-2p-30" vertex="1">
          <mxGeometry x="30.000000000000057" width="195.16999999999993" height="30" as="geometry">
            <mxRectangle width="195.16999999999993" height="30" as="alternateBounds" />
          </mxGeometry>
        </mxCell>
        <mxCell id="rYv1pdvPTBTZVdlMx-2p-49" value="" style="shape=tableRow;horizontal=0;startSize=0;swimlaneHead=0;swimlaneBody=0;fillColor=none;collapsible=0;dropTarget=0;points=[[0,0.5],[1,0.5]];portConstraint=eastwest;top=0;left=0;right=0;bottom=0;" parent="rYv1pdvPTBTZVdlMx-2p-14" vertex="1">
          <mxGeometry y="181" width="225.17" height="30" as="geometry" />
        </mxCell>
        <mxCell id="rYv1pdvPTBTZVdlMx-2p-50" value="" style="shape=partialRectangle;connectable=0;fillColor=none;top=0;left=0;bottom=0;right=0;editable=1;overflow=hidden;" parent="rYv1pdvPTBTZVdlMx-2p-49" vertex="1">
          <mxGeometry width="30.000000000000057" height="30" as="geometry">
            <mxRectangle width="30.000000000000057" height="30" as="alternateBounds" />
          </mxGeometry>
        </mxCell>
        <mxCell id="rYv1pdvPTBTZVdlMx-2p-51" value="PositionId : int(11)" style="shape=partialRectangle;connectable=0;fillColor=none;top=0;left=0;bottom=0;right=0;align=left;spacingLeft=6;overflow=hidden;" parent="rYv1pdvPTBTZVdlMx-2p-49" vertex="1">
          <mxGeometry x="30.000000000000057" width="195.16999999999993" height="30" as="geometry">
            <mxRectangle width="195.16999999999993" height="30" as="alternateBounds" />
          </mxGeometry>
        </mxCell>
        <mxCell id="rYv1pdvPTBTZVdlMx-2p-52" value="" style="shape=tableRow;horizontal=0;startSize=0;swimlaneHead=0;swimlaneBody=0;fillColor=none;collapsible=0;dropTarget=0;points=[[0,0.5],[1,0.5]];portConstraint=eastwest;top=0;left=0;right=0;bottom=0;" parent="rYv1pdvPTBTZVdlMx-2p-14" vertex="1">
          <mxGeometry y="211" width="225.17" height="30" as="geometry" />
        </mxCell>
        <mxCell id="rYv1pdvPTBTZVdlMx-2p-53" value="" style="shape=partialRectangle;connectable=0;fillColor=none;top=0;left=0;bottom=0;right=0;editable=1;overflow=hidden;" parent="rYv1pdvPTBTZVdlMx-2p-52" vertex="1">
          <mxGeometry width="30.000000000000057" height="30" as="geometry">
            <mxRectangle width="30.000000000000057" height="30" as="alternateBounds" />
          </mxGeometry>
        </mxCell>
        <mxCell id="rYv1pdvPTBTZVdlMx-2p-54" value="HireDate : Date" style="shape=partialRectangle;connectable=0;fillColor=none;top=0;left=0;bottom=0;right=0;align=left;spacingLeft=6;overflow=hidden;" parent="rYv1pdvPTBTZVdlMx-2p-52" vertex="1">
          <mxGeometry x="30.000000000000057" width="195.16999999999993" height="30" as="geometry">
            <mxRectangle width="195.16999999999993" height="30" as="alternateBounds" />
          </mxGeometry>
        </mxCell>
        <mxCell id="rYv1pdvPTBTZVdlMx-2p-55" value="" style="shape=tableRow;horizontal=0;startSize=0;swimlaneHead=0;swimlaneBody=0;fillColor=none;collapsible=0;dropTarget=0;points=[[0,0.5],[1,0.5]];portConstraint=eastwest;top=0;left=0;right=0;bottom=0;" parent="rYv1pdvPTBTZVdlMx-2p-14" vertex="1">
          <mxGeometry y="241" width="225.17" height="30" as="geometry" />
        </mxCell>
        <mxCell id="rYv1pdvPTBTZVdlMx-2p-56" value="" style="shape=partialRectangle;connectable=0;fillColor=none;top=0;left=0;bottom=0;right=0;editable=1;overflow=hidden;" parent="rYv1pdvPTBTZVdlMx-2p-55" vertex="1">
          <mxGeometry width="30.000000000000057" height="30" as="geometry">
            <mxRectangle width="30.000000000000057" height="30" as="alternateBounds" />
          </mxGeometry>
        </mxCell>
        <mxCell id="rYv1pdvPTBTZVdlMx-2p-57" value="ContractType: int(11) (enum)" style="shape=partialRectangle;connectable=0;fillColor=none;top=0;left=0;bottom=0;right=0;align=left;spacingLeft=6;overflow=hidden;" parent="rYv1pdvPTBTZVdlMx-2p-55" vertex="1">
          <mxGeometry x="30.000000000000057" width="195.16999999999993" height="30" as="geometry">
            <mxRectangle width="195.16999999999993" height="30" as="alternateBounds" />
          </mxGeometry>
        </mxCell>
        <mxCell id="rYv1pdvPTBTZVdlMx-2p-58" value="" style="shape=tableRow;horizontal=0;startSize=0;swimlaneHead=0;swimlaneBody=0;fillColor=none;collapsible=0;dropTarget=0;points=[[0,0.5],[1,0.5]];portConstraint=eastwest;top=0;left=0;right=0;bottom=0;" parent="rYv1pdvPTBTZVdlMx-2p-14" vertex="1">
          <mxGeometry y="271" width="225.17" height="30" as="geometry" />
        </mxCell>
        <mxCell id="rYv1pdvPTBTZVdlMx-2p-59" value="" style="shape=partialRectangle;connectable=0;fillColor=none;top=0;left=0;bottom=0;right=0;editable=1;overflow=hidden;" parent="rYv1pdvPTBTZVdlMx-2p-58" vertex="1">
          <mxGeometry width="30.000000000000057" height="30" as="geometry">
            <mxRectangle width="30.000000000000057" height="30" as="alternateBounds" />
          </mxGeometry>
        </mxCell>
        <mxCell id="rYv1pdvPTBTZVdlMx-2p-60" value="VacationDays : int(11)" style="shape=partialRectangle;connectable=0;fillColor=none;top=0;left=0;bottom=0;right=0;align=left;spacingLeft=6;overflow=hidden;" parent="rYv1pdvPTBTZVdlMx-2p-58" vertex="1">
          <mxGeometry x="30.000000000000057" width="195.16999999999993" height="30" as="geometry">
            <mxRectangle width="195.16999999999993" height="30" as="alternateBounds" />
          </mxGeometry>
        </mxCell>
        <mxCell id="rYv1pdvPTBTZVdlMx-2p-27" value="" style="shape=tableRow;horizontal=0;startSize=0;swimlaneHead=0;swimlaneBody=0;fillColor=none;collapsible=0;dropTarget=0;points=[[0,0.5],[1,0.5]];portConstraint=eastwest;top=0;left=0;right=0;bottom=0;" parent="1" vertex="1">
          <mxGeometry x="-503" y="192" width="180" height="30" as="geometry" />
        </mxCell>
        <mxCell id="rYv1pdvPTBTZVdlMx-2p-28" value="" style="shape=partialRectangle;connectable=0;fillColor=none;top=0;left=0;bottom=0;right=0;editable=1;overflow=hidden;" parent="rYv1pdvPTBTZVdlMx-2p-27" vertex="1">
          <mxGeometry width="30" height="30" as="geometry">
            <mxRectangle width="30" height="30" as="alternateBounds" />
          </mxGeometry>
        </mxCell>
        <mxCell id="rYv1pdvPTBTZVdlMx-2p-61" value="" style="edgeStyle=entityRelationEdgeStyle;fontSize=12;html=1;endArrow=ERoneToMany;rounded=0;entryX=0;entryY=0.5;entryDx=0;entryDy=0;exitX=1;exitY=0.5;exitDx=0;exitDy=0;" parent="1" source="rYv1pdvPTBTZVdlMx-2p-2" target="rYv1pdvPTBTZVdlMx-2p-18" edge="1">
          <mxGeometry width="100" height="100" relative="1" as="geometry">
            <mxPoint x="-612" y="88" as="sourcePoint" />
            <mxPoint x="-512" y="-12" as="targetPoint" />
          </mxGeometry>
        </mxCell>
        <mxCell id="rYv1pdvPTBTZVdlMx-2p-62" value="Position" style="shape=table;startSize=30;container=1;collapsible=1;childLayout=tableLayout;fixedRows=1;rowLines=0;fontStyle=1;align=center;resizeLast=1;" parent="1" vertex="1">
          <mxGeometry x="-191" y="202" width="180" height="120" as="geometry" />
        </mxCell>
        <mxCell id="rYv1pdvPTBTZVdlMx-2p-63" value="" style="shape=tableRow;horizontal=0;startSize=0;swimlaneHead=0;swimlaneBody=0;fillColor=none;collapsible=0;dropTarget=0;points=[[0,0.5],[1,0.5]];portConstraint=eastwest;top=0;left=0;right=0;bottom=1;" parent="rYv1pdvPTBTZVdlMx-2p-62" vertex="1">
          <mxGeometry y="30" width="180" height="30" as="geometry" />
        </mxCell>
        <mxCell id="rYv1pdvPTBTZVdlMx-2p-64" value="PK" style="shape=partialRectangle;connectable=0;fillColor=none;top=0;left=0;bottom=0;right=0;fontStyle=1;overflow=hidden;" parent="rYv1pdvPTBTZVdlMx-2p-63" vertex="1">
          <mxGeometry width="30" height="30" as="geometry">
            <mxRectangle width="30" height="30" as="alternateBounds" />
          </mxGeometry>
        </mxCell>
        <mxCell id="rYv1pdvPTBTZVdlMx-2p-65" value="ID" style="shape=partialRectangle;connectable=0;fillColor=none;top=0;left=0;bottom=0;right=0;align=left;spacingLeft=6;fontStyle=5;overflow=hidden;" parent="rYv1pdvPTBTZVdlMx-2p-63" vertex="1">
          <mxGeometry x="30" width="150" height="30" as="geometry">
            <mxRectangle width="150" height="30" as="alternateBounds" />
          </mxGeometry>
        </mxCell>
        <mxCell id="rYv1pdvPTBTZVdlMx-2p-66" value="" style="shape=tableRow;horizontal=0;startSize=0;swimlaneHead=0;swimlaneBody=0;fillColor=none;collapsible=0;dropTarget=0;points=[[0,0.5],[1,0.5]];portConstraint=eastwest;top=0;left=0;right=0;bottom=0;" parent="rYv1pdvPTBTZVdlMx-2p-62" vertex="1">
          <mxGeometry y="60" width="180" height="30" as="geometry" />
        </mxCell>
        <mxCell id="rYv1pdvPTBTZVdlMx-2p-67" value="" style="shape=partialRectangle;connectable=0;fillColor=none;top=0;left=0;bottom=0;right=0;editable=1;overflow=hidden;" parent="rYv1pdvPTBTZVdlMx-2p-66" vertex="1">
          <mxGeometry width="30" height="30" as="geometry">
            <mxRectangle width="30" height="30" as="alternateBounds" />
          </mxGeometry>
        </mxCell>
        <mxCell id="rYv1pdvPTBTZVdlMx-2p-68" value="Name : varchar(63)" style="shape=partialRectangle;connectable=0;fillColor=none;top=0;left=0;bottom=0;right=0;align=left;spacingLeft=6;overflow=hidden;" parent="rYv1pdvPTBTZVdlMx-2p-66" vertex="1">
          <mxGeometry x="30" width="150" height="30" as="geometry">
            <mxRectangle width="150" height="30" as="alternateBounds" />
          </mxGeometry>
        </mxCell>
        <mxCell id="rYv1pdvPTBTZVdlMx-2p-69" value="" style="shape=tableRow;horizontal=0;startSize=0;swimlaneHead=0;swimlaneBody=0;fillColor=none;collapsible=0;dropTarget=0;points=[[0,0.5],[1,0.5]];portConstraint=eastwest;top=0;left=0;right=0;bottom=0;" parent="rYv1pdvPTBTZVdlMx-2p-62" vertex="1">
          <mxGeometry y="90" width="180" height="30" as="geometry" />
        </mxCell>
        <mxCell id="rYv1pdvPTBTZVdlMx-2p-70" value="" style="shape=partialRectangle;connectable=0;fillColor=none;top=0;left=0;bottom=0;right=0;editable=1;overflow=hidden;" parent="rYv1pdvPTBTZVdlMx-2p-69" vertex="1">
          <mxGeometry width="30" height="30" as="geometry">
            <mxRectangle width="30" height="30" as="alternateBounds" />
          </mxGeometry>
        </mxCell>
        <mxCell id="rYv1pdvPTBTZVdlMx-2p-71" value="HourlyRate : int(11)" style="shape=partialRectangle;connectable=0;fillColor=none;top=0;left=0;bottom=0;right=0;align=left;spacingLeft=6;overflow=hidden;" parent="rYv1pdvPTBTZVdlMx-2p-69" vertex="1">
          <mxGeometry x="30" width="150" height="30" as="geometry">
            <mxRectangle width="150" height="30" as="alternateBounds" />
          </mxGeometry>
        </mxCell>
        <mxCell id="rYv1pdvPTBTZVdlMx-2p-75" value="" style="edgeStyle=entityRelationEdgeStyle;fontSize=12;html=1;endArrow=ERoneToMany;rounded=0;entryX=1;entryY=0.5;entryDx=0;entryDy=0;exitX=0;exitY=0.5;exitDx=0;exitDy=0;" parent="1" source="rYv1pdvPTBTZVdlMx-2p-63" target="rYv1pdvPTBTZVdlMx-2p-49" edge="1">
          <mxGeometry width="100" height="100" relative="1" as="geometry">
            <mxPoint x="-245" y="222" as="sourcePoint" />
            <mxPoint x="-145" y="122" as="targetPoint" />
          </mxGeometry>
        </mxCell>
        <mxCell id="rYv1pdvPTBTZVdlMx-2p-89" value="" style="edgeStyle=entityRelationEdgeStyle;fontSize=12;html=1;endArrow=ERoneToMany;rounded=0;exitX=1;exitY=0.5;exitDx=0;exitDy=0;entryX=0;entryY=0.5;entryDx=0;entryDy=0;" parent="1" source="rYv1pdvPTBTZVdlMx-2p-15" target="rYv1pdvPTBTZVdlMx-2p-209" edge="1">
          <mxGeometry width="100" height="100" relative="1" as="geometry">
            <mxPoint x="-365" y="513" as="sourcePoint" />
            <mxPoint x="-265" y="413" as="targetPoint" />
          </mxGeometry>
        </mxCell>
        <mxCell id="rYv1pdvPTBTZVdlMx-2p-113" value="Storing" style="shape=table;startSize=30;container=1;collapsible=1;childLayout=tableLayout;fixedRows=1;rowLines=0;fontStyle=1;align=center;resizeLast=1;" parent="1" vertex="1">
          <mxGeometry x="-507" y="384" width="180" height="151" as="geometry" />
        </mxCell>
        <mxCell id="rYv1pdvPTBTZVdlMx-2p-114" value="" style="shape=tableRow;horizontal=0;startSize=0;swimlaneHead=0;swimlaneBody=0;fillColor=none;collapsible=0;dropTarget=0;points=[[0,0.5],[1,0.5]];portConstraint=eastwest;top=0;left=0;right=0;bottom=1;" parent="rYv1pdvPTBTZVdlMx-2p-113" vertex="1">
          <mxGeometry y="30" width="180" height="30" as="geometry" />
        </mxCell>
        <mxCell id="rYv1pdvPTBTZVdlMx-2p-115" value="PK" style="shape=partialRectangle;connectable=0;fillColor=none;top=0;left=0;bottom=0;right=0;fontStyle=1;overflow=hidden;" parent="rYv1pdvPTBTZVdlMx-2p-114" vertex="1">
          <mxGeometry width="30" height="30" as="geometry">
            <mxRectangle width="30" height="30" as="alternateBounds" />
          </mxGeometry>
        </mxCell>
        <mxCell id="rYv1pdvPTBTZVdlMx-2p-116" value="ID" style="shape=partialRectangle;connectable=0;fillColor=none;top=0;left=0;bottom=0;right=0;align=left;spacingLeft=6;fontStyle=5;overflow=hidden;" parent="rYv1pdvPTBTZVdlMx-2p-114" vertex="1">
          <mxGeometry x="30" width="150" height="30" as="geometry">
            <mxRectangle width="150" height="30" as="alternateBounds" />
          </mxGeometry>
        </mxCell>
        <mxCell id="rYv1pdvPTBTZVdlMx-2p-117" value="" style="shape=tableRow;horizontal=0;startSize=0;swimlaneHead=0;swimlaneBody=0;fillColor=none;collapsible=0;dropTarget=0;points=[[0,0.5],[1,0.5]];portConstraint=eastwest;top=0;left=0;right=0;bottom=0;" parent="rYv1pdvPTBTZVdlMx-2p-113" vertex="1">
          <mxGeometry y="60" width="180" height="30" as="geometry" />
        </mxCell>
        <mxCell id="rYv1pdvPTBTZVdlMx-2p-118" value="" style="shape=partialRectangle;connectable=0;fillColor=none;top=0;left=0;bottom=0;right=0;editable=1;overflow=hidden;" parent="rYv1pdvPTBTZVdlMx-2p-117" vertex="1">
          <mxGeometry width="30" height="30" as="geometry">
            <mxRectangle width="30" height="30" as="alternateBounds" />
          </mxGeometry>
        </mxCell>
        <mxCell id="rYv1pdvPTBTZVdlMx-2p-119" value="ShopId : int(11)" style="shape=partialRectangle;connectable=0;fillColor=none;top=0;left=0;bottom=0;right=0;align=left;spacingLeft=6;overflow=hidden;" parent="rYv1pdvPTBTZVdlMx-2p-117" vertex="1">
          <mxGeometry x="30" width="150" height="30" as="geometry">
            <mxRectangle width="150" height="30" as="alternateBounds" />
          </mxGeometry>
        </mxCell>
        <mxCell id="rYv1pdvPTBTZVdlMx-2p-120" value="" style="shape=tableRow;horizontal=0;startSize=0;swimlaneHead=0;swimlaneBody=0;fillColor=none;collapsible=0;dropTarget=0;points=[[0,0.5],[1,0.5]];portConstraint=eastwest;top=0;left=0;right=0;bottom=0;" parent="rYv1pdvPTBTZVdlMx-2p-113" vertex="1">
          <mxGeometry y="90" width="180" height="30" as="geometry" />
        </mxCell>
        <mxCell id="rYv1pdvPTBTZVdlMx-2p-121" value="" style="shape=partialRectangle;connectable=0;fillColor=none;top=0;left=0;bottom=0;right=0;editable=1;overflow=hidden;" parent="rYv1pdvPTBTZVdlMx-2p-120" vertex="1">
          <mxGeometry width="30" height="30" as="geometry">
            <mxRectangle width="30" height="30" as="alternateBounds" />
          </mxGeometry>
        </mxCell>
        <mxCell id="rYv1pdvPTBTZVdlMx-2p-122" value="ProductId : int(11)" style="shape=partialRectangle;connectable=0;fillColor=none;top=0;left=0;bottom=0;right=0;align=left;spacingLeft=6;overflow=hidden;" parent="rYv1pdvPTBTZVdlMx-2p-120" vertex="1">
          <mxGeometry x="30" width="150" height="30" as="geometry">
            <mxRectangle width="150" height="30" as="alternateBounds" />
          </mxGeometry>
        </mxCell>
        <mxCell id="rYv1pdvPTBTZVdlMx-2p-123" value="" style="shape=tableRow;horizontal=0;startSize=0;swimlaneHead=0;swimlaneBody=0;fillColor=none;collapsible=0;dropTarget=0;points=[[0,0.5],[1,0.5]];portConstraint=eastwest;top=0;left=0;right=0;bottom=0;" parent="rYv1pdvPTBTZVdlMx-2p-113" vertex="1">
          <mxGeometry y="120" width="180" height="30" as="geometry" />
        </mxCell>
        <mxCell id="rYv1pdvPTBTZVdlMx-2p-124" value="" style="shape=partialRectangle;connectable=0;fillColor=none;top=0;left=0;bottom=0;right=0;editable=1;overflow=hidden;" parent="rYv1pdvPTBTZVdlMx-2p-123" vertex="1">
          <mxGeometry width="30" height="30" as="geometry">
            <mxRectangle width="30" height="30" as="alternateBounds" />
          </mxGeometry>
        </mxCell>
        <mxCell id="rYv1pdvPTBTZVdlMx-2p-125" value="Amount : int(11)" style="shape=partialRectangle;connectable=0;fillColor=none;top=0;left=0;bottom=0;right=0;align=left;spacingLeft=6;overflow=hidden;" parent="rYv1pdvPTBTZVdlMx-2p-123" vertex="1">
          <mxGeometry x="30" width="150" height="30" as="geometry">
            <mxRectangle width="150" height="30" as="alternateBounds" />
          </mxGeometry>
        </mxCell>
        <mxCell id="rYv1pdvPTBTZVdlMx-2p-132" value="" style="edgeStyle=entityRelationEdgeStyle;fontSize=12;html=1;endArrow=ERoneToMany;rounded=0;exitX=1;exitY=0.5;exitDx=0;exitDy=0;entryX=0;entryY=0.5;entryDx=0;entryDy=0;" parent="1" source="rYv1pdvPTBTZVdlMx-2p-2" target="rYv1pdvPTBTZVdlMx-2p-114" edge="1">
          <mxGeometry width="100" height="100" relative="1" as="geometry">
            <mxPoint x="-491" y="619" as="sourcePoint" />
            <mxPoint x="-391" y="519" as="targetPoint" />
          </mxGeometry>
        </mxCell>
        <mxCell id="rYv1pdvPTBTZVdlMx-2p-133" value="Product" style="shape=table;startSize=30;container=1;collapsible=1;childLayout=tableLayout;fixedRows=1;rowLines=0;fontStyle=1;align=center;resizeLast=1;" parent="1" vertex="1">
          <mxGeometry x="-240" y="386" width="180" height="208" as="geometry" />
        </mxCell>
        <mxCell id="rYv1pdvPTBTZVdlMx-2p-134" value="" style="shape=tableRow;horizontal=0;startSize=0;swimlaneHead=0;swimlaneBody=0;fillColor=none;collapsible=0;dropTarget=0;points=[[0,0.5],[1,0.5]];portConstraint=eastwest;top=0;left=0;right=0;bottom=1;" parent="rYv1pdvPTBTZVdlMx-2p-133" vertex="1">
          <mxGeometry y="30" width="180" height="30" as="geometry" />
        </mxCell>
        <mxCell id="rYv1pdvPTBTZVdlMx-2p-135" value="PK" style="shape=partialRectangle;connectable=0;fillColor=none;top=0;left=0;bottom=0;right=0;fontStyle=1;overflow=hidden;" parent="rYv1pdvPTBTZVdlMx-2p-134" vertex="1">
          <mxGeometry width="30" height="30" as="geometry">
            <mxRectangle width="30" height="30" as="alternateBounds" />
          </mxGeometry>
        </mxCell>
        <mxCell id="rYv1pdvPTBTZVdlMx-2p-136" value="ID" style="shape=partialRectangle;connectable=0;fillColor=none;top=0;left=0;bottom=0;right=0;align=left;spacingLeft=6;fontStyle=5;overflow=hidden;" parent="rYv1pdvPTBTZVdlMx-2p-134" vertex="1">
          <mxGeometry x="30" width="150" height="30" as="geometry">
            <mxRectangle width="150" height="30" as="alternateBounds" />
          </mxGeometry>
        </mxCell>
        <mxCell id="rYv1pdvPTBTZVdlMx-2p-137" value="" style="shape=tableRow;horizontal=0;startSize=0;swimlaneHead=0;swimlaneBody=0;fillColor=none;collapsible=0;dropTarget=0;points=[[0,0.5],[1,0.5]];portConstraint=eastwest;top=0;left=0;right=0;bottom=0;" parent="rYv1pdvPTBTZVdlMx-2p-133" vertex="1">
          <mxGeometry y="60" width="180" height="30" as="geometry" />
        </mxCell>
        <mxCell id="rYv1pdvPTBTZVdlMx-2p-138" value="" style="shape=partialRectangle;connectable=0;fillColor=none;top=0;left=0;bottom=0;right=0;editable=1;overflow=hidden;" parent="rYv1pdvPTBTZVdlMx-2p-137" vertex="1">
          <mxGeometry width="30" height="30" as="geometry">
            <mxRectangle width="30" height="30" as="alternateBounds" />
          </mxGeometry>
        </mxCell>
        <mxCell id="rYv1pdvPTBTZVdlMx-2p-139" value="Name : varchar(255)" style="shape=partialRectangle;connectable=0;fillColor=none;top=0;left=0;bottom=0;right=0;align=left;spacingLeft=6;overflow=hidden;" parent="rYv1pdvPTBTZVdlMx-2p-137" vertex="1">
          <mxGeometry x="30" width="150" height="30" as="geometry">
            <mxRectangle width="150" height="30" as="alternateBounds" />
          </mxGeometry>
        </mxCell>
        <mxCell id="rYv1pdvPTBTZVdlMx-2p-140" value="" style="shape=tableRow;horizontal=0;startSize=0;swimlaneHead=0;swimlaneBody=0;fillColor=none;collapsible=0;dropTarget=0;points=[[0,0.5],[1,0.5]];portConstraint=eastwest;top=0;left=0;right=0;bottom=0;" parent="rYv1pdvPTBTZVdlMx-2p-133" vertex="1">
          <mxGeometry y="90" width="180" height="30" as="geometry" />
        </mxCell>
        <mxCell id="rYv1pdvPTBTZVdlMx-2p-141" value="" style="shape=partialRectangle;connectable=0;fillColor=none;top=0;left=0;bottom=0;right=0;editable=1;overflow=hidden;" parent="rYv1pdvPTBTZVdlMx-2p-140" vertex="1">
          <mxGeometry width="30" height="30" as="geometry">
            <mxRectangle width="30" height="30" as="alternateBounds" />
          </mxGeometry>
        </mxCell>
        <mxCell id="rYv1pdvPTBTZVdlMx-2p-142" value="CompanyName : (255)" style="shape=partialRectangle;connectable=0;fillColor=none;top=0;left=0;bottom=0;right=0;align=left;spacingLeft=6;overflow=hidden;" parent="rYv1pdvPTBTZVdlMx-2p-140" vertex="1">
          <mxGeometry x="30" width="150" height="30" as="geometry">
            <mxRectangle width="150" height="30" as="alternateBounds" />
          </mxGeometry>
        </mxCell>
        <mxCell id="rYv1pdvPTBTZVdlMx-2p-143" value="" style="shape=tableRow;horizontal=0;startSize=0;swimlaneHead=0;swimlaneBody=0;fillColor=none;collapsible=0;dropTarget=0;points=[[0,0.5],[1,0.5]];portConstraint=eastwest;top=0;left=0;right=0;bottom=0;" parent="rYv1pdvPTBTZVdlMx-2p-133" vertex="1">
          <mxGeometry y="120" width="180" height="29" as="geometry" />
        </mxCell>
        <mxCell id="rYv1pdvPTBTZVdlMx-2p-144" value="" style="shape=partialRectangle;connectable=0;fillColor=none;top=0;left=0;bottom=0;right=0;editable=1;overflow=hidden;" parent="rYv1pdvPTBTZVdlMx-2p-143" vertex="1">
          <mxGeometry width="30" height="29" as="geometry">
            <mxRectangle width="30" height="29" as="alternateBounds" />
          </mxGeometry>
        </mxCell>
        <mxCell id="rYv1pdvPTBTZVdlMx-2p-145" value="Cost : int(11)" style="shape=partialRectangle;connectable=0;fillColor=none;top=0;left=0;bottom=0;right=0;align=left;spacingLeft=6;overflow=hidden;" parent="rYv1pdvPTBTZVdlMx-2p-143" vertex="1">
          <mxGeometry x="30" width="150" height="29" as="geometry">
            <mxRectangle width="150" height="29" as="alternateBounds" />
          </mxGeometry>
        </mxCell>
        <mxCell id="rYv1pdvPTBTZVdlMx-2p-146" value="" style="shape=tableRow;horizontal=0;startSize=0;swimlaneHead=0;swimlaneBody=0;fillColor=none;collapsible=0;dropTarget=0;points=[[0,0.5],[1,0.5]];portConstraint=eastwest;top=0;left=0;right=0;bottom=0;" parent="rYv1pdvPTBTZVdlMx-2p-133" vertex="1">
          <mxGeometry y="149" width="180" height="29" as="geometry" />
        </mxCell>
        <mxCell id="rYv1pdvPTBTZVdlMx-2p-147" value="" style="shape=partialRectangle;connectable=0;fillColor=none;top=0;left=0;bottom=0;right=0;editable=1;overflow=hidden;" parent="rYv1pdvPTBTZVdlMx-2p-146" vertex="1">
          <mxGeometry width="30" height="29" as="geometry">
            <mxRectangle width="30" height="29" as="alternateBounds" />
          </mxGeometry>
        </mxCell>
        <mxCell id="rYv1pdvPTBTZVdlMx-2p-148" value="Type : int(11) (enum)" style="shape=partialRectangle;connectable=0;fillColor=none;top=0;left=0;bottom=0;right=0;align=left;spacingLeft=6;overflow=hidden;" parent="rYv1pdvPTBTZVdlMx-2p-146" vertex="1">
          <mxGeometry x="30" width="150" height="29" as="geometry">
            <mxRectangle width="150" height="29" as="alternateBounds" />
          </mxGeometry>
        </mxCell>
        <mxCell id="WUU9dTVfPpyL6MgoQ-7k-1" value="" style="shape=tableRow;horizontal=0;startSize=0;swimlaneHead=0;swimlaneBody=0;fillColor=none;collapsible=0;dropTarget=0;points=[[0,0.5],[1,0.5]];portConstraint=eastwest;top=0;left=0;right=0;bottom=0;" vertex="1" parent="rYv1pdvPTBTZVdlMx-2p-133">
          <mxGeometry y="178" width="180" height="29" as="geometry" />
        </mxCell>
        <mxCell id="WUU9dTVfPpyL6MgoQ-7k-2" value="" style="shape=partialRectangle;connectable=0;fillColor=none;top=0;left=0;bottom=0;right=0;editable=1;overflow=hidden;" vertex="1" parent="WUU9dTVfPpyL6MgoQ-7k-1">
          <mxGeometry width="30" height="29" as="geometry">
            <mxRectangle width="30" height="29" as="alternateBounds" />
          </mxGeometry>
        </mxCell>
        <mxCell id="WUU9dTVfPpyL6MgoQ-7k-3" value="Cal: int(11)" style="shape=partialRectangle;connectable=0;fillColor=none;top=0;left=0;bottom=0;right=0;align=left;spacingLeft=6;overflow=hidden;" vertex="1" parent="WUU9dTVfPpyL6MgoQ-7k-1">
          <mxGeometry x="30" width="150" height="29" as="geometry">
            <mxRectangle width="150" height="29" as="alternateBounds" />
          </mxGeometry>
        </mxCell>
        <mxCell id="rYv1pdvPTBTZVdlMx-2p-164" value="" style="edgeStyle=entityRelationEdgeStyle;fontSize=12;html=1;endArrow=ERmandOne;startArrow=ERmandOne;rounded=0;exitX=1;exitY=0.5;exitDx=0;exitDy=0;entryX=0;entryY=0.5;entryDx=0;entryDy=0;" parent="1" source="rYv1pdvPTBTZVdlMx-2p-120" target="rYv1pdvPTBTZVdlMx-2p-134" edge="1">
          <mxGeometry width="100" height="100" relative="1" as="geometry">
            <mxPoint x="-297" y="588" as="sourcePoint" />
            <mxPoint x="-197" y="488" as="targetPoint" />
          </mxGeometry>
        </mxCell>
        <mxCell id="rYv1pdvPTBTZVdlMx-2p-165" value="Order" style="shape=table;startSize=30;container=1;collapsible=1;childLayout=tableLayout;fixedRows=1;rowLines=0;fontStyle=1;align=center;resizeLast=1;" parent="1" vertex="1">
          <mxGeometry x="-529" y="609" width="206" height="210" as="geometry" />
        </mxCell>
        <mxCell id="rYv1pdvPTBTZVdlMx-2p-166" value="" style="shape=tableRow;horizontal=0;startSize=0;swimlaneHead=0;swimlaneBody=0;fillColor=none;collapsible=0;dropTarget=0;points=[[0,0.5],[1,0.5]];portConstraint=eastwest;top=0;left=0;right=0;bottom=1;" parent="rYv1pdvPTBTZVdlMx-2p-165" vertex="1">
          <mxGeometry y="30" width="206" height="30" as="geometry" />
        </mxCell>
        <mxCell id="rYv1pdvPTBTZVdlMx-2p-167" value="PK" style="shape=partialRectangle;connectable=0;fillColor=none;top=0;left=0;bottom=0;right=0;fontStyle=1;overflow=hidden;" parent="rYv1pdvPTBTZVdlMx-2p-166" vertex="1">
          <mxGeometry width="30" height="30" as="geometry">
            <mxRectangle width="30" height="30" as="alternateBounds" />
          </mxGeometry>
        </mxCell>
        <mxCell id="rYv1pdvPTBTZVdlMx-2p-168" value="ID" style="shape=partialRectangle;connectable=0;fillColor=none;top=0;left=0;bottom=0;right=0;align=left;spacingLeft=6;fontStyle=5;overflow=hidden;" parent="rYv1pdvPTBTZVdlMx-2p-166" vertex="1">
          <mxGeometry x="30" width="176" height="30" as="geometry">
            <mxRectangle width="176" height="30" as="alternateBounds" />
          </mxGeometry>
        </mxCell>
        <mxCell id="rYv1pdvPTBTZVdlMx-2p-169" value="" style="shape=tableRow;horizontal=0;startSize=0;swimlaneHead=0;swimlaneBody=0;fillColor=none;collapsible=0;dropTarget=0;points=[[0,0.5],[1,0.5]];portConstraint=eastwest;top=0;left=0;right=0;bottom=0;" parent="rYv1pdvPTBTZVdlMx-2p-165" vertex="1">
          <mxGeometry y="60" width="206" height="30" as="geometry" />
        </mxCell>
        <mxCell id="rYv1pdvPTBTZVdlMx-2p-170" value="FK" style="shape=partialRectangle;connectable=0;fillColor=none;top=0;left=0;bottom=0;right=0;editable=1;overflow=hidden;fontStyle=1" parent="rYv1pdvPTBTZVdlMx-2p-169" vertex="1">
          <mxGeometry width="30" height="30" as="geometry">
            <mxRectangle width="30" height="30" as="alternateBounds" />
          </mxGeometry>
        </mxCell>
        <mxCell id="rYv1pdvPTBTZVdlMx-2p-171" value="ShopId : int(11)" style="shape=partialRectangle;connectable=0;fillColor=none;top=0;left=0;bottom=0;right=0;align=left;spacingLeft=6;overflow=hidden;" parent="rYv1pdvPTBTZVdlMx-2p-169" vertex="1">
          <mxGeometry x="30" width="176" height="30" as="geometry">
            <mxRectangle width="176" height="30" as="alternateBounds" />
          </mxGeometry>
        </mxCell>
        <mxCell id="rYv1pdvPTBTZVdlMx-2p-172" value="" style="shape=tableRow;horizontal=0;startSize=0;swimlaneHead=0;swimlaneBody=0;fillColor=none;collapsible=0;dropTarget=0;points=[[0,0.5],[1,0.5]];portConstraint=eastwest;top=0;left=0;right=0;bottom=0;" parent="rYv1pdvPTBTZVdlMx-2p-165" vertex="1">
          <mxGeometry y="90" width="206" height="30" as="geometry" />
        </mxCell>
        <mxCell id="rYv1pdvPTBTZVdlMx-2p-173" value="" style="shape=partialRectangle;connectable=0;fillColor=none;top=0;left=0;bottom=0;right=0;editable=1;overflow=hidden;" parent="rYv1pdvPTBTZVdlMx-2p-172" vertex="1">
          <mxGeometry width="30" height="30" as="geometry">
            <mxRectangle width="30" height="30" as="alternateBounds" />
          </mxGeometry>
        </mxCell>
        <mxCell id="rYv1pdvPTBTZVdlMx-2p-174" value="Time : DateTime" style="shape=partialRectangle;connectable=0;fillColor=none;top=0;left=0;bottom=0;right=0;align=left;spacingLeft=6;overflow=hidden;" parent="rYv1pdvPTBTZVdlMx-2p-172" vertex="1">
          <mxGeometry x="30" width="176" height="30" as="geometry">
            <mxRectangle width="176" height="30" as="alternateBounds" />
          </mxGeometry>
        </mxCell>
        <mxCell id="rYv1pdvPTBTZVdlMx-2p-175" value="" style="shape=tableRow;horizontal=0;startSize=0;swimlaneHead=0;swimlaneBody=0;fillColor=none;collapsible=0;dropTarget=0;points=[[0,0.5],[1,0.5]];portConstraint=eastwest;top=0;left=0;right=0;bottom=0;" parent="rYv1pdvPTBTZVdlMx-2p-165" vertex="1">
          <mxGeometry y="120" width="206" height="30" as="geometry" />
        </mxCell>
        <mxCell id="rYv1pdvPTBTZVdlMx-2p-176" value="" style="shape=partialRectangle;connectable=0;fillColor=none;top=0;left=0;bottom=0;right=0;editable=1;overflow=hidden;" parent="rYv1pdvPTBTZVdlMx-2p-175" vertex="1">
          <mxGeometry width="30" height="30" as="geometry">
            <mxRectangle width="30" height="30" as="alternateBounds" />
          </mxGeometry>
        </mxCell>
        <mxCell id="rYv1pdvPTBTZVdlMx-2p-177" value="DeliveryAdress: varchar(255)" style="shape=partialRectangle;connectable=0;fillColor=none;top=0;left=0;bottom=0;right=0;align=left;spacingLeft=6;overflow=hidden;" parent="rYv1pdvPTBTZVdlMx-2p-175" vertex="1">
          <mxGeometry x="30" width="176" height="30" as="geometry">
            <mxRectangle width="176" height="30" as="alternateBounds" />
          </mxGeometry>
        </mxCell>
        <mxCell id="rYv1pdvPTBTZVdlMx-2p-180" value="" style="shape=tableRow;horizontal=0;startSize=0;swimlaneHead=0;swimlaneBody=0;fillColor=none;collapsible=0;dropTarget=0;points=[[0,0.5],[1,0.5]];portConstraint=eastwest;top=0;left=0;right=0;bottom=0;" parent="rYv1pdvPTBTZVdlMx-2p-165" vertex="1">
          <mxGeometry y="150" width="206" height="30" as="geometry" />
        </mxCell>
        <mxCell id="rYv1pdvPTBTZVdlMx-2p-181" value="" style="shape=partialRectangle;connectable=0;fillColor=none;top=0;left=0;bottom=0;right=0;editable=1;overflow=hidden;" parent="rYv1pdvPTBTZVdlMx-2p-180" vertex="1">
          <mxGeometry width="30" height="30" as="geometry">
            <mxRectangle width="30" height="30" as="alternateBounds" />
          </mxGeometry>
        </mxCell>
        <mxCell id="rYv1pdvPTBTZVdlMx-2p-182" value="CustomerId : int(11)" style="shape=partialRectangle;connectable=0;fillColor=none;top=0;left=0;bottom=0;right=0;align=left;spacingLeft=6;overflow=hidden;" parent="rYv1pdvPTBTZVdlMx-2p-180" vertex="1">
          <mxGeometry x="30" width="176" height="30" as="geometry">
            <mxRectangle width="176" height="30" as="alternateBounds" />
          </mxGeometry>
        </mxCell>
        <mxCell id="rYv1pdvPTBTZVdlMx-2p-183" value="" style="shape=tableRow;horizontal=0;startSize=0;swimlaneHead=0;swimlaneBody=0;fillColor=none;collapsible=0;dropTarget=0;points=[[0,0.5],[1,0.5]];portConstraint=eastwest;top=0;left=0;right=0;bottom=0;" parent="rYv1pdvPTBTZVdlMx-2p-165" vertex="1">
          <mxGeometry y="180" width="206" height="30" as="geometry" />
        </mxCell>
        <mxCell id="rYv1pdvPTBTZVdlMx-2p-184" value="" style="shape=partialRectangle;connectable=0;fillColor=none;top=0;left=0;bottom=0;right=0;editable=1;overflow=hidden;" parent="rYv1pdvPTBTZVdlMx-2p-183" vertex="1">
          <mxGeometry width="30" height="30" as="geometry">
            <mxRectangle width="30" height="30" as="alternateBounds" />
          </mxGeometry>
        </mxCell>
        <mxCell id="rYv1pdvPTBTZVdlMx-2p-185" value="DeliveryCost : int(11)" style="shape=partialRectangle;connectable=0;fillColor=none;top=0;left=0;bottom=0;right=0;align=left;spacingLeft=6;overflow=hidden;" parent="rYv1pdvPTBTZVdlMx-2p-183" vertex="1">
          <mxGeometry x="30" width="176" height="30" as="geometry">
            <mxRectangle width="176" height="30" as="alternateBounds" />
          </mxGeometry>
        </mxCell>
        <mxCell id="rYv1pdvPTBTZVdlMx-2p-179" value="" style="edgeStyle=entityRelationEdgeStyle;fontSize=12;html=1;endArrow=ERmandOne;startArrow=ERmandOne;rounded=0;exitX=1;exitY=0.5;exitDx=0;exitDy=0;entryX=0;entryY=0.5;entryDx=0;entryDy=0;" parent="1" source="rYv1pdvPTBTZVdlMx-2p-2" target="rYv1pdvPTBTZVdlMx-2p-169" edge="1">
          <mxGeometry width="100" height="100" relative="1" as="geometry">
            <mxPoint x="188" y="590" as="sourcePoint" />
            <mxPoint x="288" y="490" as="targetPoint" />
          </mxGeometry>
        </mxCell>
        <mxCell id="rYv1pdvPTBTZVdlMx-2p-204" value="OrderList" style="swimlane;fontStyle=0;childLayout=stackLayout;horizontal=1;startSize=26;horizontalStack=0;resizeParent=1;resizeParentMax=0;resizeLast=0;collapsible=1;marginBottom=0;align=center;fontSize=14;" parent="1" vertex="1">
          <mxGeometry x="-251" y="677" width="160" height="116" as="geometry" />
        </mxCell>
        <mxCell id="rYv1pdvPTBTZVdlMx-2p-205" value="OrderId" style="text;strokeColor=none;fillColor=none;spacingLeft=4;spacingRight=4;overflow=hidden;rotatable=0;points=[[0,0.5],[1,0.5]];portConstraint=eastwest;fontSize=12;" parent="rYv1pdvPTBTZVdlMx-2p-204" vertex="1">
          <mxGeometry y="26" width="160" height="30" as="geometry" />
        </mxCell>
        <mxCell id="rYv1pdvPTBTZVdlMx-2p-206" value="ProductId" style="text;strokeColor=none;fillColor=none;spacingLeft=4;spacingRight=4;overflow=hidden;rotatable=0;points=[[0,0.5],[1,0.5]];portConstraint=eastwest;fontSize=12;" parent="rYv1pdvPTBTZVdlMx-2p-204" vertex="1">
          <mxGeometry y="56" width="160" height="30" as="geometry" />
        </mxCell>
        <mxCell id="rYv1pdvPTBTZVdlMx-2p-207" value="Amount" style="text;strokeColor=none;fillColor=none;spacingLeft=4;spacingRight=4;overflow=hidden;rotatable=0;points=[[0,0.5],[1,0.5]];portConstraint=eastwest;fontSize=12;" parent="rYv1pdvPTBTZVdlMx-2p-204" vertex="1">
          <mxGeometry y="86" width="160" height="30" as="geometry" />
        </mxCell>
        <mxCell id="rYv1pdvPTBTZVdlMx-2p-213" style="edgeStyle=orthogonalEdgeStyle;rounded=0;orthogonalLoop=1;jettySize=auto;html=1;exitX=1;exitY=0.5;exitDx=0;exitDy=0;" parent="rYv1pdvPTBTZVdlMx-2p-204" source="rYv1pdvPTBTZVdlMx-2p-205" target="rYv1pdvPTBTZVdlMx-2p-205" edge="1">
          <mxGeometry relative="1" as="geometry" />
        </mxCell>
        <mxCell id="rYv1pdvPTBTZVdlMx-2p-208" value="List" style="swimlane;fontStyle=0;childLayout=stackLayout;horizontal=1;startSize=26;horizontalStack=0;resizeParent=1;resizeParentMax=0;resizeLast=0;collapsible=1;marginBottom=0;align=center;fontSize=14;" parent="1" vertex="1">
          <mxGeometry x="-173" y="34" width="160" height="116" as="geometry" />
        </mxCell>
        <mxCell id="rYv1pdvPTBTZVdlMx-2p-209" value="WorkerId : int(11)" style="text;strokeColor=none;fillColor=none;spacingLeft=4;spacingRight=4;overflow=hidden;rotatable=0;points=[[0,0.5],[1,0.5]];portConstraint=eastwest;fontSize=12;" parent="rYv1pdvPTBTZVdlMx-2p-208" vertex="1">
          <mxGeometry y="26" width="160" height="30" as="geometry" />
        </mxCell>
        <mxCell id="rYv1pdvPTBTZVdlMx-2p-210" value="StartTime : DateTime" style="text;strokeColor=none;fillColor=none;spacingLeft=4;spacingRight=4;overflow=hidden;rotatable=0;points=[[0,0.5],[1,0.5]];portConstraint=eastwest;fontSize=12;" parent="rYv1pdvPTBTZVdlMx-2p-208" vertex="1">
          <mxGeometry y="56" width="160" height="30" as="geometry" />
        </mxCell>
        <mxCell id="rYv1pdvPTBTZVdlMx-2p-211" value="EndTime : DateTime" style="text;strokeColor=none;fillColor=none;spacingLeft=4;spacingRight=4;overflow=hidden;rotatable=0;points=[[0,0.5],[1,0.5]];portConstraint=eastwest;fontSize=12;" parent="rYv1pdvPTBTZVdlMx-2p-208" vertex="1">
          <mxGeometry y="86" width="160" height="30" as="geometry" />
        </mxCell>
        <mxCell id="rYv1pdvPTBTZVdlMx-2p-212" value="" style="edgeStyle=entityRelationEdgeStyle;fontSize=12;html=1;endArrow=ERoneToMany;rounded=0;exitX=1;exitY=0.5;exitDx=0;exitDy=0;entryX=0;entryY=0.5;entryDx=0;entryDy=0;" parent="1" source="rYv1pdvPTBTZVdlMx-2p-166" target="rYv1pdvPTBTZVdlMx-2p-205" edge="1">
          <mxGeometry width="100" height="100" relative="1" as="geometry">
            <mxPoint x="-739" y="897" as="sourcePoint" />
            <mxPoint x="-639" y="797" as="targetPoint" />
          </mxGeometry>
        </mxCell>
        <mxCell id="rYv1pdvPTBTZVdlMx-2p-214" value="Customer" style="shape=table;startSize=30;container=1;collapsible=1;childLayout=tableLayout;fixedRows=1;rowLines=0;fontStyle=1;align=center;resizeLast=1;" parent="1" vertex="1">
          <mxGeometry x="-854" y="737" width="180" height="121" as="geometry" />
        </mxCell>
        <mxCell id="rYv1pdvPTBTZVdlMx-2p-215" value="" style="shape=tableRow;horizontal=0;startSize=0;swimlaneHead=0;swimlaneBody=0;fillColor=none;collapsible=0;dropTarget=0;points=[[0,0.5],[1,0.5]];portConstraint=eastwest;top=0;left=0;right=0;bottom=1;" parent="rYv1pdvPTBTZVdlMx-2p-214" vertex="1">
          <mxGeometry y="30" width="180" height="30" as="geometry" />
        </mxCell>
        <mxCell id="rYv1pdvPTBTZVdlMx-2p-216" value="PK" style="shape=partialRectangle;connectable=0;fillColor=none;top=0;left=0;bottom=0;right=0;fontStyle=1;overflow=hidden;" parent="rYv1pdvPTBTZVdlMx-2p-215" vertex="1">
          <mxGeometry width="30" height="30" as="geometry">
            <mxRectangle width="30" height="30" as="alternateBounds" />
          </mxGeometry>
        </mxCell>
        <mxCell id="rYv1pdvPTBTZVdlMx-2p-217" value="ID" style="shape=partialRectangle;connectable=0;fillColor=none;top=0;left=0;bottom=0;right=0;align=left;spacingLeft=6;fontStyle=5;overflow=hidden;" parent="rYv1pdvPTBTZVdlMx-2p-215" vertex="1">
          <mxGeometry x="30" width="150" height="30" as="geometry">
            <mxRectangle width="150" height="30" as="alternateBounds" />
          </mxGeometry>
        </mxCell>
        <mxCell id="rYv1pdvPTBTZVdlMx-2p-218" value="" style="shape=tableRow;horizontal=0;startSize=0;swimlaneHead=0;swimlaneBody=0;fillColor=none;collapsible=0;dropTarget=0;points=[[0,0.5],[1,0.5]];portConstraint=eastwest;top=0;left=0;right=0;bottom=0;" parent="rYv1pdvPTBTZVdlMx-2p-214" vertex="1">
          <mxGeometry y="60" width="180" height="30" as="geometry" />
        </mxCell>
        <mxCell id="rYv1pdvPTBTZVdlMx-2p-219" value="" style="shape=partialRectangle;connectable=0;fillColor=none;top=0;left=0;bottom=0;right=0;editable=1;overflow=hidden;" parent="rYv1pdvPTBTZVdlMx-2p-218" vertex="1">
          <mxGeometry width="30" height="30" as="geometry">
            <mxRectangle width="30" height="30" as="alternateBounds" />
          </mxGeometry>
        </mxCell>
        <mxCell id="rYv1pdvPTBTZVdlMx-2p-220" value="Name" style="shape=partialRectangle;connectable=0;fillColor=none;top=0;left=0;bottom=0;right=0;align=left;spacingLeft=6;overflow=hidden;" parent="rYv1pdvPTBTZVdlMx-2p-218" vertex="1">
          <mxGeometry x="30" width="150" height="30" as="geometry">
            <mxRectangle width="150" height="30" as="alternateBounds" />
          </mxGeometry>
        </mxCell>
        <mxCell id="rYv1pdvPTBTZVdlMx-2p-221" value="" style="shape=tableRow;horizontal=0;startSize=0;swimlaneHead=0;swimlaneBody=0;fillColor=none;collapsible=0;dropTarget=0;points=[[0,0.5],[1,0.5]];portConstraint=eastwest;top=0;left=0;right=0;bottom=0;" parent="rYv1pdvPTBTZVdlMx-2p-214" vertex="1">
          <mxGeometry y="90" width="180" height="30" as="geometry" />
        </mxCell>
        <mxCell id="rYv1pdvPTBTZVdlMx-2p-222" value="" style="shape=partialRectangle;connectable=0;fillColor=none;top=0;left=0;bottom=0;right=0;editable=1;overflow=hidden;" parent="rYv1pdvPTBTZVdlMx-2p-221" vertex="1">
          <mxGeometry width="30" height="30" as="geometry">
            <mxRectangle width="30" height="30" as="alternateBounds" />
          </mxGeometry>
        </mxCell>
        <mxCell id="rYv1pdvPTBTZVdlMx-2p-223" value="Email" style="shape=partialRectangle;connectable=0;fillColor=none;top=0;left=0;bottom=0;right=0;align=left;spacingLeft=6;overflow=hidden;strokeColor=#000000;" parent="rYv1pdvPTBTZVdlMx-2p-221" vertex="1">
          <mxGeometry x="30" width="150" height="30" as="geometry">
            <mxRectangle width="150" height="30" as="alternateBounds" />
          </mxGeometry>
        </mxCell>
        <mxCell id="rYv1pdvPTBTZVdlMx-2p-227" value="" style="edgeStyle=entityRelationEdgeStyle;fontSize=12;html=1;endArrow=ERmandOne;startArrow=ERmandOne;rounded=0;entryX=0;entryY=0.5;entryDx=0;entryDy=0;exitX=1;exitY=0.5;exitDx=0;exitDy=0;" parent="1" source="rYv1pdvPTBTZVdlMx-2p-215" target="rYv1pdvPTBTZVdlMx-2p-180" edge="1">
          <mxGeometry width="100" height="100" relative="1" as="geometry">
            <mxPoint x="96" y="500" as="sourcePoint" />
            <mxPoint x="196" y="400" as="targetPoint" />
          </mxGeometry>
        </mxCell>
        <mxCell id="rYv1pdvPTBTZVdlMx-2p-228" value="WorkTime" style="shape=table;startSize=30;container=1;collapsible=1;childLayout=tableLayout;fixedRows=1;rowLines=0;fontStyle=1;align=center;resizeLast=1;strokeColor=#000000;" parent="1" vertex="1">
          <mxGeometry x="-1036" y="420" width="180" height="151" as="geometry" />
        </mxCell>
        <mxCell id="rYv1pdvPTBTZVdlMx-2p-229" value="" style="shape=tableRow;horizontal=0;startSize=0;swimlaneHead=0;swimlaneBody=0;fillColor=none;collapsible=0;dropTarget=0;points=[[0,0.5],[1,0.5]];portConstraint=eastwest;top=0;left=0;right=0;bottom=1;strokeColor=#000000;" parent="rYv1pdvPTBTZVdlMx-2p-228" vertex="1">
          <mxGeometry y="30" width="180" height="30" as="geometry" />
        </mxCell>
        <mxCell id="rYv1pdvPTBTZVdlMx-2p-230" value="PK" style="shape=partialRectangle;connectable=0;fillColor=none;top=0;left=0;bottom=0;right=0;fontStyle=1;overflow=hidden;strokeColor=#000000;" parent="rYv1pdvPTBTZVdlMx-2p-229" vertex="1">
          <mxGeometry width="30" height="30" as="geometry">
            <mxRectangle width="30" height="30" as="alternateBounds" />
          </mxGeometry>
        </mxCell>
        <mxCell id="rYv1pdvPTBTZVdlMx-2p-231" value="ID" style="shape=partialRectangle;connectable=0;fillColor=none;top=0;left=0;bottom=0;right=0;align=left;spacingLeft=6;fontStyle=5;overflow=hidden;strokeColor=#000000;" parent="rYv1pdvPTBTZVdlMx-2p-229" vertex="1">
          <mxGeometry x="30" width="150" height="30" as="geometry">
            <mxRectangle width="150" height="30" as="alternateBounds" />
          </mxGeometry>
        </mxCell>
        <mxCell id="rYv1pdvPTBTZVdlMx-2p-232" value="" style="shape=tableRow;horizontal=0;startSize=0;swimlaneHead=0;swimlaneBody=0;fillColor=none;collapsible=0;dropTarget=0;points=[[0,0.5],[1,0.5]];portConstraint=eastwest;top=0;left=0;right=0;bottom=0;strokeColor=#000000;" parent="rYv1pdvPTBTZVdlMx-2p-228" vertex="1">
          <mxGeometry y="60" width="180" height="30" as="geometry" />
        </mxCell>
        <mxCell id="rYv1pdvPTBTZVdlMx-2p-233" value="" style="shape=partialRectangle;connectable=0;fillColor=none;top=0;left=0;bottom=0;right=0;editable=1;overflow=hidden;strokeColor=#000000;" parent="rYv1pdvPTBTZVdlMx-2p-232" vertex="1">
          <mxGeometry width="30" height="30" as="geometry">
            <mxRectangle width="30" height="30" as="alternateBounds" />
          </mxGeometry>
        </mxCell>
        <mxCell id="rYv1pdvPTBTZVdlMx-2p-234" value="MnStart : Time" style="shape=partialRectangle;connectable=0;fillColor=none;top=0;left=0;bottom=0;right=0;align=left;spacingLeft=6;overflow=hidden;strokeColor=#000000;" parent="rYv1pdvPTBTZVdlMx-2p-232" vertex="1">
          <mxGeometry x="30" width="150" height="30" as="geometry">
            <mxRectangle width="150" height="30" as="alternateBounds" />
          </mxGeometry>
        </mxCell>
        <mxCell id="rYv1pdvPTBTZVdlMx-2p-235" value="" style="shape=tableRow;horizontal=0;startSize=0;swimlaneHead=0;swimlaneBody=0;fillColor=none;collapsible=0;dropTarget=0;points=[[0,0.5],[1,0.5]];portConstraint=eastwest;top=0;left=0;right=0;bottom=0;strokeColor=#000000;" parent="rYv1pdvPTBTZVdlMx-2p-228" vertex="1">
          <mxGeometry y="90" width="180" height="30" as="geometry" />
        </mxCell>
        <mxCell id="rYv1pdvPTBTZVdlMx-2p-236" value="" style="shape=partialRectangle;connectable=0;fillColor=none;top=0;left=0;bottom=0;right=0;editable=1;overflow=hidden;strokeColor=#000000;" parent="rYv1pdvPTBTZVdlMx-2p-235" vertex="1">
          <mxGeometry width="30" height="30" as="geometry">
            <mxRectangle width="30" height="30" as="alternateBounds" />
          </mxGeometry>
        </mxCell>
        <mxCell id="rYv1pdvPTBTZVdlMx-2p-237" value="MnEnd: Time" style="shape=partialRectangle;connectable=0;fillColor=none;top=0;left=0;bottom=0;right=0;align=left;spacingLeft=6;overflow=hidden;strokeColor=#000000;" parent="rYv1pdvPTBTZVdlMx-2p-235" vertex="1">
          <mxGeometry x="30" width="150" height="30" as="geometry">
            <mxRectangle width="150" height="30" as="alternateBounds" />
          </mxGeometry>
        </mxCell>
        <mxCell id="rYv1pdvPTBTZVdlMx-2p-238" value="" style="shape=tableRow;horizontal=0;startSize=0;swimlaneHead=0;swimlaneBody=0;fillColor=none;collapsible=0;dropTarget=0;points=[[0,0.5],[1,0.5]];portConstraint=eastwest;top=0;left=0;right=0;bottom=0;strokeColor=#000000;" parent="rYv1pdvPTBTZVdlMx-2p-228" vertex="1">
          <mxGeometry y="120" width="180" height="30" as="geometry" />
        </mxCell>
        <mxCell id="rYv1pdvPTBTZVdlMx-2p-239" value="" style="shape=partialRectangle;connectable=0;fillColor=none;top=0;left=0;bottom=0;right=0;editable=1;overflow=hidden;strokeColor=#000000;" parent="rYv1pdvPTBTZVdlMx-2p-238" vertex="1">
          <mxGeometry width="30" height="30" as="geometry">
            <mxRectangle width="30" height="30" as="alternateBounds" />
          </mxGeometry>
        </mxCell>
        <mxCell id="rYv1pdvPTBTZVdlMx-2p-240" value="..." style="shape=partialRectangle;connectable=0;fillColor=none;top=0;left=0;bottom=0;right=0;align=left;spacingLeft=6;overflow=hidden;strokeColor=#000000;" parent="rYv1pdvPTBTZVdlMx-2p-238" vertex="1">
          <mxGeometry x="30" width="150" height="30" as="geometry">
            <mxRectangle width="150" height="30" as="alternateBounds" />
          </mxGeometry>
        </mxCell>
        <mxCell id="rYv1pdvPTBTZVdlMx-2p-241" value="" style="edgeStyle=entityRelationEdgeStyle;fontSize=12;html=1;endArrow=ERoneToMany;rounded=0;entryX=0;entryY=0.5;entryDx=0;entryDy=0;exitX=1;exitY=0.5;exitDx=0;exitDy=0;" parent="1" source="rYv1pdvPTBTZVdlMx-2p-229" target="rYv1pdvPTBTZVdlMx-2p-8" edge="1">
          <mxGeometry width="100" height="100" relative="1" as="geometry">
            <mxPoint x="-682" y="312" as="sourcePoint" />
            <mxPoint x="-608" y="536" as="targetPoint" />
          </mxGeometry>
        </mxCell>
      </root>
    </mxGraphModel>
  </diagram>
</mxfile>
